<svg xmlns="http://www.w3.org/2000/svg" width="24" height="24" viewBox="0 0 24 24">
    <g fill="#CCC" fill-rule="evenodd">
        <path d="M5.283 18.364L18.01 5.636l.707.707L5.99 19.071zM14.994 12.19a3 3 0 0 1-2.805 2.804zM12 9c.166 0 .328.013.487.04l-3.448 3.447A3 3 0 0 1 12 9z"/>
        <path d="M22 12c-1.776 3.548-5.586 6-10 6-.874 0-1.724-.096-2.54-.278l1.792-1.792a4 4 0 0 0 4.678-4.678l2.965-2.964c1.31.992 2.378 2.26 3.105 3.712zM12 6c1.078 0 2.12.146 3.106.42l-1.798 1.799a4 4 0 0 0-5.09 5.088l-2.702 2.702A10.694 10.694 0 0 1 2 12.001C3.776 8.453 7.586 6 12 6z"/>
    </g>
</svg>
